<svg xmlns="http://www.w3.org/2000/svg" width="145" height="52" viewBox="0 0 145 52"><g fill="#E31837"><path d="M135.718 28.553l3.79 6.19h4.48l-5.92-9.824zM108.567 10.887h-4.6l6.128 10.078 2.133-3.725zM71.05 10.428c-7.054 0-12.37 5.334-12.37 12.406 0 4.502 1.933 8.114 5.608 10.45l1.834-3.43-.02-.01c-2.337-1.67-3.424-3.892-3.424-7.01 0-5.055 3.442-8.588 8.373-8.588s8.37 3.533 8.37 8.59c0 4.975-3.52 8.584-8.37 8.584a8.314 8.314 0 0 1-1.89-.208l-.2-.047-1.754 3.503.655.174c1.006.266 2.08.4 3.192.4 7.05 0 12.367-5.333 12.367-12.407-.003-7.073-5.32-12.407-12.37-12.407M102.174 17.925c0-3.002-1.5-5.327-4.107-6.387l-.514-.21-1.47 3.494.377.186c1.16.57 1.853 1.657 1.853 2.917 0 1.942-1.335 3.25-3.324 3.25H91.2v-6.502h2.05l1.573-3.786h-7.586v23.856H91.2v-9.785h2.042l5.786 9.785h4.768l-6.22-10.288c3.05-1.1 4.598-3.29 4.598-6.53M111.768 23.53v11.213h3.963V24.45l7.77-13.56h-4.57zM139.093 10.887l-4.92 7.728-4.62-7.728h-4.557l6.882 11.374-7.782 12.483h4.525l15.04-23.856z"/></g><path fill="#1F1E21" d="M64.398 48.77l-.676 1.377h4.23l.618-1.377h-4.172zm-3.12-10.63v12.006h.895l.674-1.377v-4.41h4.332l.614-1.377h-4.946v-3.468h5.106l.617-1.375h-7.293zM71.632 50.146h1.57v-6.41l-1.57-1.6v8.01zm0-10.14L81.726 50.41V38.14h-1.59v8.52l-8.505-8.783v2.13zM88.383 48.77l-.676 1.377h4.233l.615-1.377h-4.172zm-3.118-10.63v12.006h.894l.675-1.377v-4.41h4.332l.615-1.377h-4.946v-3.468h5.106l.615-1.375h-7.292z"/><g fill="#1F1E21"><path d="M95.617 38.14h4.233l-.655 1.377h-2.008v4.07h2.464c1.373 0 2.207-.885 2.207-2.035 0-.81-.497-1.49-1.232-1.828l.636-1.263c1.334.51 2.106 1.603 2.106 3.092 0 1.732-.913 2.788-2.76 3.278l3.417 5.316h-1.908l-3.26-5.184H97.19v5.184h-1.57V38.14zM112.232 49.034c2.6 0 4.33-1.396 4.548-3.43h-4.47l.594-1.377h5.566v.49c0 3.3-2.208 5.69-6.338 5.69a6.245 6.245 0 0 1-1.987-.32l.655-1.28c.456.15.933.227 1.432.227m-6.5-4.844c0-3.45 2.704-6.295 6.56-6.295 2.42 0 3.953.885 5.164 2.318l-1.112 1c-.913-1.188-2.426-1.923-3.975-1.923-3.162 0-5.048 2.242-5.048 4.844 0 1.696.676 3.015 2.227 4.05l-.656 1.358c-1.95-1.15-3.16-2.903-3.16-5.352"/></g><path fill="#1F1E21" d="M121.53 38.14h1.57v12.005h-1.57zM129.798 48.77l-.676 1.377h4.23l.618-1.377h-4.172zm-3.12-10.63v12.006h.895l.676-1.377v-4.41h4.328l.617-1.377h-4.946v-3.468h5.103l.617-1.375h-7.293zM140.11 50.41c-1.766 0-2.76-.49-3.714-1.262l.936-1.187c.91.753 1.826 1.056 2.92 1.056 1.27 0 2.38-.642 2.38-1.886 0-1.148-.752-1.716-2.26-2.392l-.878-.397c-1.47-.657-2.6-1.412-2.6-3.26 0-1.96 1.59-3.184 3.874-3.184 1.49 0 2.344.414 3.22.998l-.836 1.15c-.894-.64-1.59-.793-2.365-.793-1.448 0-2.304.702-2.304 1.755 0 1.11.993 1.583 1.748 1.922l.956.432c1.748.79 3.04 1.64 3.04 3.638-.002 2.092-1.69 3.41-4.115 3.41"/><path fill="#E31837" d="M50.29 26.186c.02-6.582-2.673-13.077-7.39-17.815-4.696-4.717-11-7.32-17.792-7.33C11.285 1.04.022 12.32 0 26.183c-.014 8.805 4.773 14.862 5.754 16.01l-3.74 8.026h7.31l.103-.228c.178-.4 17.196-38.692 18.762-42.147 7.677 1.17 15.526 8.275 15.535 18.322.004 4.293-1.63 7.732-2.375 9.075l-3.742-8.04H24.974l-2.71 6.14H33.49l3.27 7.322c-.967.803-5.286 4.06-11.654 4.06-3.09 0-5.602-.784-7.25-1.494l-2.698 6.042c2.258.972 5.72 2.07 9.892 2.07h.057c7.706-.016 12.952-3.445 14.405-4.517l1.488 3.397h7.322l-3.75-8.07c.974-1.143 5.69-7.115 5.72-15.966z"/><g><linearGradient id="a" gradientUnits="userSpaceOnUse" x1="8.194" y1="37.785" x2="14.281" y2="32.054"><stop offset="0" stop-color="#2b2827"/><stop offset=".147" stop-color="#53242b"/><stop offset=".356" stop-color="#86202f"/><stop offset=".553" stop-color="#ae1d32"/><stop offset=".732" stop-color="#cb1a35"/><stop offset=".887" stop-color="#dd1936"/><stop offset="1" stop-color="#e31837"/></linearGradient><path fill="url(#a)" d="M14.05 24.344L8.982 35.187a24.328 24.328 0 0 0 4.602 5.452 57960.2 57960.2 0 0 1 7.247-16.296H14.05z"/><linearGradient id="b" gradientUnits="userSpaceOnUse" x1="39.995" y1="35.487" x2="46.094" y2="32.552"><stop offset="0" stop-color="#2b2827"/><stop offset=".158" stop-color="#57242b"/><stop offset=".362" stop-color="#88202f"/><stop offset=".555" stop-color="#b01c33"/><stop offset=".732" stop-color="#cc1a35"/><stop offset=".886" stop-color="#dd1936"/><stop offset="1" stop-color="#e31837"/></linearGradient><path fill="url(#b)" d="M44.568 42.15c.6-.703 2.615-3.24 4.084-7.144L43.646 24.57c.045.525.08 1.054.08 1.596.003 4.292-1.63 7.732-2.375 9.074l3.327 7.15h.003l-.112-.24z"/><linearGradient id="c" gradientUnits="userSpaceOnUse" x1="27.182" y1="8.771" x2="33.706" y2="5.631"><stop offset="0" stop-color="#2b2827"/><stop offset=".138" stop-color="#51252a"/><stop offset=".351" stop-color="#84202f"/><stop offset=".551" stop-color="#ad1d32"/><stop offset=".732" stop-color="#cb1a35"/><stop offset=".888" stop-color="#dd1936"/><stop offset="1" stop-color="#e31837"/></linearGradient><path fill="url(#c)" d="M25.093 1.04h-.067l3.164 6.805c3.34.51 6.714 2.145 9.46 4.656L33.7 2.52a25.533 25.533 0 0 0-8.57-1.48h-.037z"/></g><path fill="#FFF" d="M8.978 35.198c-1.186-2.155-4.65-9.72-.117-17.81 4.14-7.385 10.747-9.1 12.863-9.47L8.978 35.2z"/></svg>